name D:\school\WTK\thesis\model\3dpredictsim\Results\MidTarsalJoint\Fal_s1_bCst_PF_Natali2010_ls150_MT_k800_d050_MTP_T5_ig24.mot
datacolumns 128
datarows 4
range 1.11051792 1.14383346
endheader
time	pelvis_tilt	pelvis_list	pelvis_rotation	pelvis_tx	pelvis_ty	pelvis_tz	hip_flexion_l	hip_adduction_l	hip_rotation_l	hip_flexion_r	hip_adduction_r	hip_rotation_r	knee_angle_l	knee_angle_r	ankle_angle_l	ankle_angle_r	subtalar_angle_l	subtalar_angle_r	mtj_angle_l	mtj_angle_r	mtp_angle_l	mtp_angle_r	lumbar_extension	lumbar_bending	lumbar_rotation	arm_flex_l	arm_add_l	arm_rot_l	arm_flex_r	arm_add_r	arm_rot_r	elbow_flex_l	elbow_flex_r	pro_sup_l	pro_sup_r	glut_med1_l/activation	glut_med2_l/activation	glut_med3_l/activation	glut_min1_l/activation	glut_min2_l/activation	glut_min3_l/activation	semimem_l/activation	semiten_l/activation	bifemlh_l/activation	bifemsh_l/activation	sar_l/activation	add_long_l/activation	add_brev_l/activation	add_mag1_l/activation	add_mag2_l/activation	add_mag3_l/activation	tfl_l/activation	pect_l/activation	grac_l/activation	glut_max1_l/activation	glut_max2_l/activation	glut_max3_l/activation	iliacus_l/activation	psoas_l/activation	quad_fem_l/activation	gem_l/activation	peri_l/activation	rect_fem_l/activation	vas_med_l/activation	vas_int_l/activation	vas_lat_l/activation	med_gas_l/activation	lat_gas_l/activation	soleus_l/activation	tib_post_l/activation	flex_dig_l/activation	flex_hal_l/activation	tib_ant_l/activation	per_brev_l/activation	per_long_l/activation	per_tert_l/activation	ext_dig_l/activation	ext_hal_l/activation	ercspn_l/activation	intobl_l/activation	extobl_l/activation	glut_med1_r/activation	glut_med2_r/activation	glut_med3_r/activation	glut_min1_r/activation	glut_min2_r/activation	glut_min3_r/activation	semimem_r/activation	semiten_r/activation	bifemlh_r/activation	bifemsh_r/activation	sar_r/activation	add_long_r/activation	add_brev_r/activation	add_mag1_r/activation	add_mag2_r/activation	add_mag3_r/activation	tfl_r/activation	pect_r/activation	grac_r/activation	glut_max1_r/activation	glut_max2_r/activation	glut_max3_r/activation	iliacus_r/activation	psoas_r/activation	quad_fem_r/activation	gem_r/activation	peri_r/activation	rect_fem_r/activation	vas_med_r/activation	vas_int_r/activation	vas_lat_r/activation	med_gas_r/activation	lat_gas_r/activation	soleus_r/activation	tib_post_r/activation	flex_dig_r/activation	flex_hal_r/activation	tib_ant_r/activation	per_brev_r/activation	per_long_r/activation	per_tert_r/activation	ext_dig_r/activation	ext_hal_r/activation	ercspn_r/activation	intobl_r/activation	extobl_r/activation	
          1.11051792	         -2.92879642	         -1.97033636	          4.61995644	          1.38814740	          0.92057327	         -0.00207457	        -17.34319108	         -0.65289980	          6.39623099	         29.78830004	          3.05759589	         -2.57961813	         -4.59812499	        -12.17276853	         -0.01130952	          6.24162224	          6.68897529	         -3.87354670	          2.32618971	         -0.07614229	         16.62775834	          0.48734424	         -2.22210060	          0.10185820	         -1.86778601	          5.30730314	        -13.44991072	         15.85137046	         -4.09304522	        -13.45775607	          6.64511156	         31.76326619	         17.24470451	         86.51662706	         86.51662706	          0.31068060	          0.11770934	          0.08975537	          0.35240986	          0.23044892	          0.13368380	          0.05000259	          0.05000086	          0.05000072	          0.07243341	          0.12381008	          0.05000033	          0.05000037	          0.05000061	          0.05000173	          0.05000144	          0.36840619	          0.05000154	          0.05000189	          0.05039147	          0.05001180	          0.05000371	          0.45861753	          0.68165435	          0.05000243	          0.05059257	          0.06983101	          0.26657092	          0.05000219	          0.05000226	          0.05000224	          0.34901898	          0.47510064	          0.32698821	          0.29916422	          0.30484841	          0.37307473	          0.05000023	          0.05000489	          0.11066537	          0.05000098	          0.05000029	          0.05000105	          0.05000004	          0.05000007	          0.05000007	          0.07021951	          0.05000299	          0.05925126	          0.05000201	          0.05000230	          0.05000629	          0.11683351	          0.06892851	          0.23974027	          0.05067056	          0.05000404	          0.13305985	          0.17091379	          0.14931046	          0.13731545	          0.10689860	          0.05645203	          0.05008292	          0.09867020	          0.05925469	          0.07495782	          0.09895095	          0.05000047	          0.05000092	          0.17404188	          0.05000131	          0.05000442	          0.05000035	          0.05000196	          0.05000225	          0.05000142	          0.05000015	          0.05000039	          0.05000006	          0.05925397	          0.05000665	          0.05276360	          0.43548895	          0.25536207	          0.19633801	          0.08845834	          0.41270616	          0.14901391	          0.07044570	          0.13280842	          0.12398763	
          1.12162310	         -2.93013244	         -2.06005132	          4.93534248	          1.40440783	          0.91950081	         -0.00188678	        -17.34914932	         -0.94521119	          6.19246247	         29.26599328	          3.39528060	         -2.38749690	         -6.26370634	        -11.76531092	         -0.48266995	          5.90116851	          7.58992224	         -4.26445200	          2.04886627	         -0.06450744	         17.84996312	          0.49718741	         -2.05594133	          0.29433513	         -1.93714848	          5.14567726	        -13.45448396	         16.24416948	         -4.89769059	        -13.45548022	          6.35446347	         32.89997585	         16.81248156	         86.51662706	         86.51662706	          0.26540983	          0.09932562	          0.07573749	          0.29737134	          0.19445774	          0.11280527	          0.05000283	          0.05000087	          0.05000059	          0.06112092	          0.10447435	          0.08832536	          0.05000442	          0.05000320	          0.05000573	          0.05000219	          0.31086952	          0.08088512	          0.05000676	          0.05000919	          0.05000739	          0.05000580	          0.41415549	          0.65698166	          0.05000268	          0.05000242	          0.05892504	          0.22493862	          0.05000620	          0.05000633	          0.05000546	          0.29450943	          0.40363712	          0.31588516	          0.29473936	          0.30123324	          0.39047880	          0.05000016	          0.05554988	          0.11092412	          0.05000089	          0.05000024	          0.05000085	          0.05000012	          0.05000022	          0.05000026	          0.05925320	          0.05925352	          0.05000071	          0.05925437	          0.05925426	          0.05002537	          0.11145915	          0.05816375	          0.22751297	          0.05000067	          0.05000135	          0.13850251	          0.30819604	          0.13351873	          0.14147492	          0.10779240	          0.05000054	          0.08314151	          0.08326297	          0.05000186	          0.11297679	          0.15479065	          0.05200830	          0.05000099	          0.15953697	          0.25808284	          0.13021256	          0.05282987	          0.13622466	          0.13283003	          0.12082177	          0.05000566	          0.05000391	          0.05256127	          0.05000010	          0.05000198	          0.05000077	          0.55176723	          0.26144552	          0.16567443	          0.24830716	          0.47271048	          0.22144840	          0.05944355	          0.11206650	          0.10462332	
          1.13272828	         -2.92707535	         -2.14813952	          5.22668481	          1.42102458	          0.91849612	         -0.00168800	        -17.25878229	         -1.23680548	          5.98577412	         28.65662262	          3.71474290	         -2.14935037	         -8.10733491	        -11.96855539	         -1.08268246	          5.28130344	          8.48674470	         -4.63381573	          1.69980400	         -0.05283872	         19.10619808	          0.51554125	         -1.86341721	          0.49440231	         -1.99966447	          4.90046687	        -13.46099016	         16.56932395	         -5.75085224	        -13.45355246	          6.08781775	         34.01889358	         16.45613652	         86.51662706	         86.51662706	          0.22395844	          0.08381306	          0.06390896	          0.25092855	          0.16408760	          0.09518754	          0.05000855	          0.05000210	          0.05000242	          0.05157531	          0.08815821	          0.17072218	          0.05281680	          0.06067680	          0.05920547	          0.05925729	          0.26231851	          0.08311887	          0.05002388	          0.05000898	          0.05000690	          0.05000915	          0.34947311	          0.61143599	          0.05000272	          0.05925274	          0.05925349	          0.18980870	          0.15727028	          0.14145152	          0.14067161	          0.24851308	          0.34059736	          0.27453457	          0.26826369	          0.25418965	          0.33002926	          0.05000016	          0.05000032	          0.12288902	          0.05000042	          0.05000014	          0.05000064	          0.05483082	          0.06017396	          0.05508012	          0.05000005	          0.05000017	          0.10460361	          0.05000017	          0.05000021	          0.05000031	          0.09405173	          0.05000113	          0.19198023	          0.05000084	          0.05008597	          0.11687211	          0.26006432	          0.30852268	          0.21106605	          0.12562720	          0.05000169	          0.07016889	          0.12737272	          0.06421430	          0.10895373	          0.13061696	          0.05000031	          0.05925986	          0.40871777	          0.21777569	          0.10987615	          0.05926004	          0.13331571	          0.13878830	          0.11617881	          0.05000075	          0.05925944	          0.05000010	          0.06442557	          0.05001014	          0.05925713	          0.46559271	          0.29171050	          0.20293285	          0.20952702	          0.42942245	          0.18686286	          0.05015970	          0.09456402	          0.08828331	
          1.14383346	         -2.92043411	         -2.24029144	          5.49008686	          1.43791186	          0.91757088	         -0.00150163	        -17.09232794	         -1.52994704	          5.76880117	         27.93908666	          3.95831377	         -1.89039404	        -10.07081572	        -12.50200130	         -1.83892962	          4.77568269	          9.34848389	         -5.02237643	          1.27804545	         -0.13391998	         20.33785200	          0.45553654	         -1.65226820	          0.70703626	         -2.05129019	          4.58407461	        -13.46406694	         16.82815750	         -6.63016408	        -13.45765070	          5.86804115	         35.11498712	         16.15578837	         86.51662706	         86.51662706	          0.31561087	          0.07072325	          0.05392782	          0.30063197	          0.13846074	          0.08032135	          0.05000410	          0.05000071	          0.05000059	          0.05000055	          0.07439063	          0.14405941	          0.05298479	          0.05120134	          0.05000566	          0.05000443	          0.25437090	          0.07024649	          0.05000340	          0.05000764	          0.05000503	          0.05000379	          0.29489290	          0.57724653	          0.05000089	          0.05000248	          0.05000082	          0.16016467	          0.13270947	          0.11936120	          0.11870294	          0.20970042	          0.28740305	          0.23165788	          0.22636693	          0.21449116	          0.27848627	          0.05000007	          0.09326770	          0.14632790	          0.05000040	          0.05000010	          0.05000042	          0.05000430	          0.05077604	          0.05000016	          0.22829685	          0.22368822	          0.27411103	          0.33994775	          0.21759945	          0.19430521	          0.08892009	          0.05000338	          0.16199798	          0.06856924	          0.05000630	          0.09861924	          0.21944783	          0.26033803	          0.17810230	          0.11763297	          0.05000179	          0.05924976	          0.10748127	          0.10202983	          0.12857662	          0.11021773	          0.05925376	          0.05000671	          0.34488457	          0.18376395	          0.20563753	          0.05000493	          0.11249477	          0.11711268	          0.09803426	          0.05000299	          0.05000518	          0.05148448	          0.05436378	          0.05000136	          0.05000336	          0.54653731	          0.32279614	          0.17124012	          0.32097536	          0.50685434	          0.15768075	          0.06206705	          0.11687435	          0.07449528	
